<?xml version="1.0" encoding="UTF-8"?>
<!DOCTYPE svg PUBLIC "-//W3C//DTD SVG 1.1//EN" "http://www.w3.org/Graphics/SVG/1.1/DTD/svg11.dtd">
<svg xmlns="http://www.w3.org/2000/svg" version="1.1" width="1348px" height="675px" style="shape-rendering:geometricPrecision; text-rendering:geometricPrecision; image-rendering:optimizeQuality; fill-rule:evenodd; clip-rule:evenodd" xmlns:xlink="http://www.w3.org/1999/xlink">
<g><path style="opacity:1" fill="#545454" d="M -0.5,-0.5 C 448.833,-0.5 898.167,-0.5 1347.5,-0.5C 1347.5,224.5 1347.5,449.5 1347.5,674.5C 898.167,674.5 448.833,674.5 -0.5,674.5C -0.5,449.5 -0.5,224.5 -0.5,-0.5 Z"/></g>
<g><path style="opacity:1" fill="#f7f7f7" d="M 596.5,84.5 C 595.523,87.2869 595.19,90.2869 595.5,93.5C 599.012,92.9455 602.012,93.6122 604.5,95.5C 602.012,97.3878 599.012,98.0545 595.5,97.5C 595.5,100.167 595.5,102.833 595.5,105.5C 597.167,105.5 598.833,105.5 600.5,105.5C 600.5,106.833 600.5,108.167 600.5,109.5C 595.833,109.5 591.167,109.5 586.5,109.5C 586.461,107.641 587.294,106.308 589,105.5C 589.667,98.1667 589.667,90.8333 589,83.5C 587.294,82.6921 586.461,81.3588 586.5,79.5C 593.5,79.5 600.5,79.5 607.5,79.5C 607.5,82.5 607.5,85.5 607.5,88.5C 606.167,88.5 604.833,88.5 603.5,88.5C 603.714,86.8561 603.38,85.3561 602.5,84C 600.288,83.2109 598.288,83.3775 596.5,84.5 Z"/></g>
<g><path style="opacity:1" fill="#bcbcbc" d="M 631.5,80.5 C 626.125,80.1718 620.792,80.5052 615.5,81.5C 616.243,82.1818 616.909,82.8485 617.5,83.5C 616.5,83.5 615.5,83.5 614.5,83.5C 614.5,82.1667 614.5,80.8333 614.5,79.5C 620.358,79.1778 626.025,79.5111 631.5,80.5 Z"/></g>
<g><path style="opacity:1" fill="#f5f5f5" d="M 694.5,79.5 C 701.841,79.3337 709.174,79.5003 716.5,80C 716.957,80.414 717.291,80.914 717.5,81.5C 711.971,89.1964 706.638,97.0297 701.5,105C 704.5,105.667 707.5,105.667 710.5,105C 712.004,103.509 712.837,101.676 713,99.5C 714.011,98.6634 715.178,98.33 716.5,98.5C 716.5,102.167 716.5,105.833 716.5,109.5C 708.58,109.815 700.747,109.482 693,108.5C 697.595,100.183 702.762,92.0162 708.5,84C 705.833,83.3333 703.167,83.3333 700.5,84C 698.393,85.2635 697.393,87.0968 697.5,89.5C 696.5,89.5 695.5,89.5 694.5,89.5C 694.5,86.1667 694.5,82.8333 694.5,79.5 Z"/></g>
<g><path style="opacity:1" fill="#f4f4f4" d="M 631.5,80.5 C 640.454,82.0541 644.287,87.3875 643,96.5C 641.941,102.819 638.441,106.986 632.5,109C 626.509,109.499 620.509,109.666 614.5,109.5C 614.461,107.641 615.294,106.308 617,105.5C 617.5,98.1742 617.666,90.8409 617.5,83.5C 616.909,82.8485 616.243,82.1818 615.5,81.5C 620.792,80.5052 626.125,80.1718 631.5,80.5 Z"/></g>
<g><path style="opacity:1" fill="#f3f3f3" d="M 651.5,79.5 C 655.226,79.1774 658.893,79.5108 662.5,80.5C 664.349,86.2377 666.349,91.9043 668.5,97.5C 670.651,91.9043 672.651,86.2377 674.5,80.5C 678.107,79.5108 681.774,79.1774 685.5,79.5C 685.5,80.5 685.5,81.5 685.5,82.5C 682.512,82.1547 681.179,83.488 681.5,86.5C 682.207,92.8133 682.707,99.1467 683,105.5C 684.011,106.337 685.178,106.67 686.5,106.5C 686.5,107.5 686.5,108.5 686.5,109.5C 682.833,109.5 679.167,109.5 675.5,109.5C 677.982,102.989 678.148,96.3221 676,89.5C 673.469,96.0914 671.136,102.758 669,109.5C 667.989,110.337 666.822,110.67 665.5,110.5C 663.923,103.339 661.756,96.3386 659,89.5C 657.649,95.0716 657.149,100.738 657.5,106.5C 658.5,106.5 659.5,106.5 660.5,106.5C 660.5,107.5 660.5,108.5 660.5,109.5C 657.167,109.5 653.833,109.5 650.5,109.5C 650.729,107.567 651.562,105.9 653,104.5C 653.939,97.5115 654.272,90.5115 654,83.5C 652.294,82.6921 651.461,81.3588 651.5,79.5 Z"/></g>
<g><path style="opacity:1" fill="#5a5a5a" d="M 624.5,83.5 C 628.923,83.357 632.423,85.0236 635,88.5C 635.667,92.8333 635.667,97.1667 635,101.5C 632.325,106.564 628.658,107.564 624,104.5C 623.667,97.4952 623.833,90.4952 624.5,83.5 Z"/></g>
<g><path style="opacity:1" fill="#f2f2f2" d="M 727.5,86.5 C 730.518,86.3354 733.518,86.502 736.5,87C 736,87.5 735.5,88 735,88.5C 734.501,94.4908 734.334,100.491 734.5,106.5C 735.833,106.5 737.167,106.5 738.5,106.5C 738.5,107.5 738.5,108.5 738.5,109.5C 733.833,109.5 729.167,109.5 724.5,109.5C 724.5,108.5 724.5,107.5 724.5,106.5C 725.822,106.67 726.989,106.337 728,105.5C 728.499,100.511 728.666,95.5111 728.5,90.5C 726.833,90.5 725.167,90.5 723.5,90.5C 723.5,89.5 723.5,88.5 723.5,87.5C 725.099,87.7678 726.432,87.4345 727.5,86.5 Z"/></g>
<g><path style="opacity:1" fill="#f5f5f5" d="M 745.5,86.5 C 750.844,86.334 756.177,86.5006 761.5,87C 762.022,87.5613 762.355,88.228 762.5,89C 758.691,97.4505 755.024,105.95 751.5,114.5C 750.264,113.754 748.93,113.421 747.5,113.5C 749.646,106.2 752.646,99.1999 756.5,92.5C 753.894,91.3483 751.227,91.1816 748.5,92C 747.663,93.0113 747.33,94.1779 747.5,95.5C 746.5,95.5 745.5,95.5 744.5,95.5C 744.704,92.4824 745.037,89.4824 745.5,86.5 Z"/></g>
<g><path style="opacity:1" fill="#7e7e7e" d="M 596.5,84.5 C 596.5,87.1667 596.5,89.8333 596.5,92.5C 599.5,92.5 602.5,92.5 605.5,92.5C 605.737,93.791 605.404,94.791 604.5,95.5C 602.012,93.6122 599.012,92.9455 595.5,93.5C 595.19,90.2869 595.523,87.2869 596.5,84.5 Z"/></g>
<g><path style="opacity:1" fill="#b8b8b8" d="M 674.5,154.5 C 673.833,162.167 673.167,169.833 672.5,177.5C 672.169,169.472 672.502,161.472 673.5,153.5C 674.107,153.624 674.44,153.957 674.5,154.5 Z"/></g>
<g><path style="opacity:1" fill="#f5f5f5" d="M 674.5,154.5 C 674.5,162.167 674.5,169.833 674.5,177.5C 876.167,177.5 1077.83,177.5 1279.5,177.5C 1279.5,178.833 1279.5,180.167 1279.5,181.5C 875.5,181.5 471.5,181.5 67.5,181.5C 67.5,180.167 67.5,178.833 67.5,177.5C 269.167,177.5 470.833,177.5 672.5,177.5C 673.167,169.833 673.833,162.167 674.5,154.5 Z"/></g>
<g><path style="opacity:1" fill="#f9f9f9" d="M 672.5,193.5 C 676.531,197.195 679.865,201.529 682.5,206.5C 679.925,211.084 676.925,215.418 673.5,219.5C 669.936,215.386 666.603,211.052 663.5,206.5C 666.757,202.312 669.757,197.979 672.5,193.5 Z"/></g>
<g><path style="opacity:1" fill="#f2f2f2" d="M 703.5,201.5 C 704.833,201.5 706.167,201.5 707.5,201.5C 707.5,203.167 707.5,204.833 707.5,206.5C 706.167,206.5 704.833,206.5 703.5,206.5C 703.5,204.833 703.5,203.167 703.5,201.5 Z"/></g>
<g><path style="opacity:1" fill="#f8f8f8" d="M 714.5,201.5 C 718.161,201.35 719.161,202.85 717.5,206C 713.707,206.487 712.707,204.987 714.5,201.5 Z"/></g>
<g><path style="opacity:1" fill="#eaeaea" d="M 724.5,201.5 C 725.833,201.5 727.167,201.5 728.5,201.5C 728.5,203.167 728.5,204.833 728.5,206.5C 724.065,207.078 722.732,205.411 724.5,201.5 Z"/></g>
<g><path style="opacity:1" fill="#f8f8f8" d="M 735.5,201.5 C 739.161,201.35 740.161,202.85 738.5,206C 734.707,206.487 733.707,204.987 735.5,201.5 Z"/></g>
<g><path style="opacity:1" fill="#eaeaea" d="M 745.5,201.5 C 746.833,201.5 748.167,201.5 749.5,201.5C 749.5,203.167 749.5,204.833 749.5,206.5C 745.065,207.078 743.732,205.411 745.5,201.5 Z"/></g>
<g><path style="opacity:1" fill="#f8f8f8" d="M 756.5,201.5 C 760.161,201.35 761.161,202.85 759.5,206C 755.707,206.487 754.707,204.987 756.5,201.5 Z"/></g>
<g><path style="opacity:1" fill="#eaeaea" d="M 766.5,201.5 C 767.833,201.5 769.167,201.5 770.5,201.5C 770.5,203.167 770.5,204.833 770.5,206.5C 766.065,207.078 764.732,205.411 766.5,201.5 Z"/></g>
<g><path style="opacity:1" fill="#f8f8f8" d="M 777.5,201.5 C 781.161,201.35 782.161,202.85 780.5,206C 776.707,206.487 775.707,204.987 777.5,201.5 Z"/></g>
<g><path style="opacity:1" fill="#eaeaea" d="M 787.5,201.5 C 788.833,201.5 790.167,201.5 791.5,201.5C 791.5,203.167 791.5,204.833 791.5,206.5C 787.065,207.078 785.732,205.411 787.5,201.5 Z"/></g>
<g><path style="opacity:1" fill="#f8f8f8" d="M 798.5,201.5 C 802.161,201.35 803.161,202.85 801.5,206C 797.707,206.487 796.707,204.987 798.5,201.5 Z"/></g>
<g><path style="opacity:1" fill="#ebebeb" d="M 808.5,201.5 C 809.833,201.5 811.167,201.5 812.5,201.5C 812.5,203.167 812.5,204.833 812.5,206.5C 808.065,207.078 806.732,205.411 808.5,201.5 Z"/></g>
<g><path style="opacity:1" fill="#f8f8f8" d="M 819.5,201.5 C 823.161,201.35 824.161,202.85 822.5,206C 818.707,206.487 817.707,204.987 819.5,201.5 Z"/></g>
<g><path style="opacity:1" fill="#eeeeee" d="M 829.5,201.5 C 830.833,201.5 832.167,201.5 833.5,201.5C 833.99,203.948 833.157,205.615 831,206.5C 828.389,205.5 827.889,203.833 829.5,201.5 Z"/></g>
<g><path style="opacity:1" fill="#e2e2e2" d="M 840.5,201.5 C 844.138,200.737 845.638,202.07 845,205.5C 840.415,207.413 838.915,206.079 840.5,201.5 Z"/></g>
<g><path style="opacity:1" fill="#f8f8f8" d="M 851.5,201.5 C 855.161,201.35 856.161,202.85 854.5,206C 850.707,206.487 849.707,204.987 851.5,201.5 Z"/></g>
<g><path style="opacity:1" fill="#e2e2e2" d="M 861.5,201.5 C 865.138,200.737 866.638,202.07 866,205.5C 861.415,207.413 859.915,206.079 861.5,201.5 Z"/></g>
<g><path style="opacity:1" fill="#f8f8f8" d="M 872.5,201.5 C 876.161,201.35 877.161,202.85 875.5,206C 871.707,206.487 870.707,204.987 872.5,201.5 Z"/></g>
<g><path style="opacity:1" fill="#e2e2e2" d="M 882.5,201.5 C 886.138,200.737 887.638,202.07 887,205.5C 882.415,207.413 880.915,206.079 882.5,201.5 Z"/></g>
<g><path style="opacity:1" fill="#f9f9f9" d="M 893.5,201.5 C 897.161,201.35 898.161,202.85 896.5,206C 892.707,206.487 891.707,204.987 893.5,201.5 Z"/></g>
<g><path style="opacity:1" fill="#e2e2e2" d="M 903.5,201.5 C 907.138,200.737 908.638,202.07 908,205.5C 903.415,207.413 901.915,206.079 903.5,201.5 Z"/></g>
<g><path style="opacity:1" fill="#f9f9f9" d="M 914.5,201.5 C 918.161,201.35 919.161,202.85 917.5,206C 913.707,206.487 912.707,204.987 914.5,201.5 Z"/></g>
<g><path style="opacity:1" fill="#e2e2e2" d="M 924.5,201.5 C 928.138,200.737 929.638,202.07 929,205.5C 924.415,207.413 922.915,206.079 924.5,201.5 Z"/></g>
<g><path style="opacity:1" fill="#f8f8f8" d="M 935.5,201.5 C 939.161,201.35 940.161,202.85 938.5,206C 934.707,206.487 933.707,204.987 935.5,201.5 Z"/></g>
<g><path style="opacity:1" fill="#eaeaea" d="M 945.5,201.5 C 946.833,201.5 948.167,201.5 949.5,201.5C 949.5,203.167 949.5,204.833 949.5,206.5C 945.065,207.078 943.732,205.411 945.5,201.5 Z"/></g>
<g><path style="opacity:1" fill="#f8f8f8" d="M 956.5,201.5 C 960.161,201.35 961.161,202.85 959.5,206C 955.707,206.487 954.707,204.987 956.5,201.5 Z"/></g>
<g><path style="opacity:1" fill="#eaeaea" d="M 966.5,201.5 C 967.833,201.5 969.167,201.5 970.5,201.5C 970.5,203.167 970.5,204.833 970.5,206.5C 966.065,207.078 964.732,205.411 966.5,201.5 Z"/></g>
<g><path style="opacity:1" fill="#f8f8f8" d="M 977.5,201.5 C 981.161,201.35 982.161,202.85 980.5,206C 976.707,206.487 975.707,204.987 977.5,201.5 Z"/></g>
<g><path style="opacity:1" fill="#eaeaea" d="M 987.5,201.5 C 988.833,201.5 990.167,201.5 991.5,201.5C 991.5,203.167 991.5,204.833 991.5,206.5C 987.065,207.078 985.732,205.411 987.5,201.5 Z"/></g>
<g><path style="opacity:1" fill="#f8f8f8" d="M 998.5,201.5 C 1002.16,201.35 1003.16,202.85 1001.5,206C 997.707,206.487 996.707,204.987 998.5,201.5 Z"/></g>
<g><path style="opacity:1" fill="#eaeaea" d="M 1008.5,201.5 C 1009.83,201.5 1011.17,201.5 1012.5,201.5C 1012.5,203.167 1012.5,204.833 1012.5,206.5C 1008.07,207.078 1006.73,205.411 1008.5,201.5 Z"/></g>
<g><path style="opacity:1" fill="#f8f8f8" d="M 1019.5,201.5 C 1023.16,201.35 1024.16,202.85 1022.5,206C 1018.71,206.487 1017.71,204.987 1019.5,201.5 Z"/></g>
<g><path style="opacity:1" fill="#ebebeb" d="M 1029.5,201.5 C 1030.83,201.5 1032.17,201.5 1033.5,201.5C 1033.5,203.167 1033.5,204.833 1033.5,206.5C 1029.07,207.078 1027.73,205.411 1029.5,201.5 Z"/></g>
<g><path style="opacity:1" fill="#f8f8f8" d="M 1040.5,201.5 C 1044.16,201.35 1045.16,202.85 1043.5,206C 1039.71,206.487 1038.71,204.987 1040.5,201.5 Z"/></g>
<g><path style="opacity:1" fill="#eeeeee" d="M 1050.5,201.5 C 1051.83,201.5 1053.17,201.5 1054.5,201.5C 1054.99,203.948 1054.16,205.615 1052,206.5C 1049.39,205.5 1048.89,203.833 1050.5,201.5 Z"/></g>
<g><path style="opacity:1" fill="#e2e2e2" d="M 1061.5,201.5 C 1065.14,200.737 1066.64,202.07 1066,205.5C 1061.42,207.413 1059.92,206.079 1061.5,201.5 Z"/></g>
<g><path style="opacity:1" fill="#f9f9f9" d="M 1072.5,201.5 C 1076.16,201.35 1077.16,202.85 1075.5,206C 1071.71,206.487 1070.71,204.987 1072.5,201.5 Z"/></g>
<g><path style="opacity:1" fill="#e2e2e2" d="M 1082.5,201.5 C 1086.14,200.737 1087.64,202.07 1087,205.5C 1082.42,207.413 1080.92,206.079 1082.5,201.5 Z"/></g>
<g><path style="opacity:1" fill="#f8f8f8" d="M 1093.5,201.5 C 1097.16,201.35 1098.16,202.85 1096.5,206C 1092.71,206.487 1091.71,204.987 1093.5,201.5 Z"/></g>
<g><path style="opacity:1" fill="#e2e2e2" d="M 1103.5,201.5 C 1107.14,200.737 1108.64,202.07 1108,205.5C 1103.42,207.413 1101.92,206.079 1103.5,201.5 Z"/></g>
<g><path style="opacity:1" fill="#f9f9f9" d="M 1114.5,201.5 C 1118.16,201.35 1119.16,202.85 1117.5,206C 1113.71,206.487 1112.71,204.987 1114.5,201.5 Z"/></g>
<g><path style="opacity:1" fill="#e2e2e2" d="M 1124.5,201.5 C 1128.14,200.737 1129.64,202.07 1129,205.5C 1124.42,207.413 1122.92,206.079 1124.5,201.5 Z"/></g>
<g><path style="opacity:1" fill="#f9f9f9" d="M 1135.5,201.5 C 1139.16,201.35 1140.16,202.85 1138.5,206C 1134.71,206.487 1133.71,204.987 1135.5,201.5 Z"/></g>
<g><path style="opacity:1" fill="#e2e2e2" d="M 1145.5,201.5 C 1149.14,200.737 1150.64,202.07 1150,205.5C 1145.42,207.413 1143.92,206.079 1145.5,201.5 Z"/></g>
<g><path style="opacity:1" fill="#f8f8f8" d="M 1156.5,201.5 C 1160.16,201.35 1161.16,202.85 1159.5,206C 1155.71,206.487 1154.71,204.987 1156.5,201.5 Z"/></g>
<g><path style="opacity:1" fill="#eaeaea" d="M 1166.5,201.5 C 1167.83,201.5 1169.17,201.5 1170.5,201.5C 1170.5,203.167 1170.5,204.833 1170.5,206.5C 1166.07,207.078 1164.73,205.411 1166.5,201.5 Z"/></g>
<g><path style="opacity:1" fill="#f8f8f8" d="M 1177.5,201.5 C 1181.16,201.35 1182.16,202.85 1180.5,206C 1176.71,206.487 1175.71,204.987 1177.5,201.5 Z"/></g>
<g><path style="opacity:1" fill="#eaeaea" d="M 1187.5,201.5 C 1188.83,201.5 1190.17,201.5 1191.5,201.5C 1191.5,203.167 1191.5,204.833 1191.5,206.5C 1187.07,207.078 1185.73,205.411 1187.5,201.5 Z"/></g>
<g><path style="opacity:1" fill="#f8f8f8" d="M 1198.5,201.5 C 1202.16,201.35 1203.16,202.85 1201.5,206C 1197.71,206.487 1196.71,204.987 1198.5,201.5 Z"/></g>
<g><path style="opacity:1" fill="#eaeaea" d="M 1208.5,201.5 C 1209.83,201.5 1211.17,201.5 1212.5,201.5C 1212.5,203.167 1212.5,204.833 1212.5,206.5C 1208.07,207.078 1206.73,205.411 1208.5,201.5 Z"/></g>
<g><path style="opacity:1" fill="#f8f8f8" d="M 1219.5,201.5 C 1223.16,201.35 1224.16,202.85 1222.5,206C 1218.71,206.487 1217.71,204.987 1219.5,201.5 Z"/></g>
<g><path style="opacity:1" fill="#ebebeb" d="M 1229.5,201.5 C 1230.83,201.5 1232.17,201.5 1233.5,201.5C 1233.5,203.167 1233.5,204.833 1233.5,206.5C 1229.07,207.078 1227.73,205.411 1229.5,201.5 Z"/></g>
<g><path style="opacity:1" fill="#f8f8f8" d="M 1240.5,201.5 C 1244.16,201.35 1245.16,202.85 1243.5,206C 1239.71,206.487 1238.71,204.987 1240.5,201.5 Z"/></g>
<g><path style="opacity:1" fill="#ebebeb" d="M 1250.5,201.5 C 1251.83,201.5 1253.17,201.5 1254.5,201.5C 1254.5,203.167 1254.5,204.833 1254.5,206.5C 1250.07,207.078 1248.73,205.411 1250.5,201.5 Z"/></g>
<g><path style="opacity:1" fill="#f8f8f8" d="M 1261.5,201.5 C 1265.16,201.35 1266.16,202.85 1264.5,206C 1260.71,206.487 1259.71,204.987 1261.5,201.5 Z"/></g>
<g><path style="opacity:1" fill="#eeeeee" d="M 1271.5,201.5 C 1272.83,201.5 1274.17,201.5 1275.5,201.5C 1275.99,203.948 1275.16,205.615 1273,206.5C 1270.39,205.5 1269.89,203.833 1271.5,201.5 Z"/></g>
<g><path style="opacity:1" fill="#eaeaea" d="M 71.5,205.5 C 72.8734,205.343 74.2068,205.51 75.5,206C 76.474,208.702 75.474,210.035 72.5,210C 70.4523,208.774 70.119,207.274 71.5,205.5 Z"/></g>
<g><path style="opacity:1" fill="#f4f4f4" d="M 82.5,205.5 C 86.1612,205.35 87.1612,206.85 85.5,210C 81.7071,210.487 80.7071,208.987 82.5,205.5 Z"/></g>
<g><path style="opacity:1" fill="#eaeaea" d="M 92.5,205.5 C 93.8734,205.343 95.2068,205.51 96.5,206C 97.474,208.702 96.474,210.035 93.5,210C 91.4523,208.774 91.119,207.274 92.5,205.5 Z"/></g>
<g><path style="opacity:1" fill="#f4f4f4" d="M 103.5,205.5 C 107.161,205.35 108.161,206.85 106.5,210C 102.707,210.487 101.707,208.987 103.5,205.5 Z"/></g>
<g><path style="opacity:1" fill="#eaeaea" d="M 113.5,205.5 C 114.873,205.343 116.207,205.51 117.5,206C 118.474,208.702 117.474,210.035 114.5,210C 112.452,208.774 112.119,207.274 113.5,205.5 Z"/></g>
<g><path style="opacity:1" fill="#f4f4f4" d="M 124.5,205.5 C 128.161,205.35 129.161,206.85 127.5,210C 123.707,210.487 122.707,208.987 124.5,205.5 Z"/></g>
<g><path style="opacity:1" fill="#eaeaea" d="M 134.5,205.5 C 135.873,205.343 137.207,205.51 138.5,206C 139.474,208.702 138.474,210.035 135.5,210C 133.452,208.774 133.119,207.274 134.5,205.5 Z"/></g>
<g><path style="opacity:1" fill="#f4f4f4" d="M 145.5,205.5 C 149.161,205.35 150.161,206.85 148.5,210C 144.707,210.487 143.707,208.987 145.5,205.5 Z"/></g>
<g><path style="opacity:1" fill="#eaeaea" d="M 155.5,205.5 C 156.873,205.343 158.207,205.51 159.5,206C 160.474,208.702 159.474,210.035 156.5,210C 154.452,208.774 154.119,207.274 155.5,205.5 Z"/></g>
<g><path style="opacity:1" fill="#f3f3f3" d="M 166.5,205.5 C 170.161,205.35 171.161,206.85 169.5,210C 165.707,210.487 164.707,208.987 166.5,205.5 Z"/></g>
<g><path style="opacity:1" fill="#ededed" d="M 176.5,205.5 C 177.833,205.5 179.167,205.5 180.5,205.5C 180.672,210.75 179.005,211.583 175.5,208C 175.743,207.098 176.077,206.265 176.5,205.5 Z"/></g>
<g><path style="opacity:1" fill="#f4f4f4" d="M 187.5,205.5 C 191.161,205.35 192.161,206.85 190.5,210C 186.707,210.487 185.707,208.987 187.5,205.5 Z"/></g>
<g><path style="opacity:1" fill="#eeeeee" d="M 197.5,205.5 C 198.833,205.5 200.167,205.5 201.5,205.5C 201.672,210.75 200.005,211.583 196.5,208C 196.743,207.098 197.077,206.265 197.5,205.5 Z"/></g>
<g><path style="opacity:1" fill="#f4f4f4" d="M 208.5,205.5 C 212.161,205.35 213.161,206.85 211.5,210C 207.707,210.487 206.707,208.987 208.5,205.5 Z"/></g>
<g><path style="opacity:1" fill="#ececec" d="M 218.5,205.5 C 219.833,205.5 221.167,205.5 222.5,205.5C 222.99,207.948 222.157,209.615 220,210.5C 217.389,209.5 216.889,207.833 218.5,205.5 Z"/></g>
<g><path style="opacity:1" fill="#f3f3f3" d="M 229.5,205.5 C 233.161,205.35 234.161,206.85 232.5,210C 228.707,210.487 227.707,208.987 229.5,205.5 Z"/></g>
<g><path style="opacity:1" fill="#ededed" d="M 239.5,205.5 C 240.833,205.5 242.167,205.5 243.5,205.5C 243.99,207.948 243.157,209.615 241,210.5C 238.389,209.5 237.889,207.833 239.5,205.5 Z"/></g>
<g><path style="opacity:1" fill="#f2f2f2" d="M 250.5,205.5 C 254.161,205.35 255.161,206.85 253.5,210C 249.707,210.487 248.707,208.987 250.5,205.5 Z"/></g>
<g><path style="opacity:1" fill="#eeeeee" d="M 260.5,205.5 C 261.833,205.5 263.167,205.5 264.5,205.5C 264.99,207.948 264.157,209.615 262,210.5C 259.389,209.5 258.889,207.833 260.5,205.5 Z"/></g>
<g><path style="opacity:1" fill="#eeeeee" d="M 270.5,205.5 C 274.138,204.737 275.638,206.07 275,209.5C 271.331,211.009 269.831,209.676 270.5,205.5 Z"/></g>
<g><path style="opacity:1" fill="#eeeeee" d="M 281.5,205.5 C 282.833,205.5 284.167,205.5 285.5,205.5C 285.99,207.948 285.157,209.615 283,210.5C 280.389,209.5 279.889,207.833 281.5,205.5 Z"/></g>
<g><path style="opacity:1" fill="#ededed" d="M 292.5,205.5 C 293.833,205.5 295.167,205.5 296.5,205.5C 296.99,207.948 296.157,209.615 294,210.5C 291.389,209.5 290.889,207.833 292.5,205.5 Z"/></g>
<g><path style="opacity:1" fill="#f2f2f2" d="M 303.5,205.5 C 307.161,205.35 308.161,206.85 306.5,210C 302.707,210.487 301.707,208.987 303.5,205.5 Z"/></g>
<g><path style="opacity:1" fill="#ededed" d="M 313.5,205.5 C 314.833,205.5 316.167,205.5 317.5,205.5C 317.99,207.948 317.157,209.615 315,210.5C 312.389,209.5 311.889,207.833 313.5,205.5 Z"/></g>
<g><path style="opacity:1" fill="#eeeeee" d="M 323.5,205.5 C 327.138,204.737 328.638,206.07 328,209.5C 324.331,211.009 322.831,209.676 323.5,205.5 Z"/></g>
<g><path style="opacity:1" fill="#eeeeee" d="M 334.5,205.5 C 335.833,205.5 337.167,205.5 338.5,205.5C 338.99,207.948 338.157,209.615 336,210.5C 333.389,209.5 332.889,207.833 334.5,205.5 Z"/></g>
<g><path style="opacity:1" fill="#ededed" d="M 344.5,205.5 C 348.138,204.737 349.638,206.07 349,209.5C 345.331,211.009 343.831,209.676 344.5,205.5 Z"/></g>
<g><path style="opacity:1" fill="#f2f2f2" d="M 355.5,205.5 C 359.161,205.35 360.161,206.85 358.5,210C 354.707,210.487 353.707,208.987 355.5,205.5 Z"/></g>
<g><path style="opacity:1" fill="#ededed" d="M 365.5,205.5 C 369.138,204.737 370.638,206.07 370,209.5C 366.331,211.009 364.831,209.676 365.5,205.5 Z"/></g>
<g><path style="opacity:1" fill="#f3f3f3" d="M 376.5,205.5 C 380.161,205.35 381.161,206.85 379.5,210C 375.707,210.487 374.707,208.987 376.5,205.5 Z"/></g>
<g><path style="opacity:1" fill="#ececec" d="M 386.5,205.5 C 390.138,204.737 391.638,206.07 391,209.5C 387.331,211.009 385.831,209.676 386.5,205.5 Z"/></g>
<g><path style="opacity:1" fill="#f3f3f3" d="M 397.5,205.5 C 401.161,205.35 402.161,206.85 400.5,210C 396.707,210.487 395.707,208.987 397.5,205.5 Z"/></g>
<g><path style="opacity:1" fill="#eeeeee" d="M 407.5,205.5 C 411.419,204.746 412.753,206.08 411.5,209.5C 408.07,210.742 406.737,209.409 407.5,205.5 Z"/></g>
<g><path style="opacity:1" fill="#f4f4f4" d="M 418.5,205.5 C 422.161,205.35 423.161,206.85 421.5,210C 417.707,210.487 416.707,208.987 418.5,205.5 Z"/></g>
<g><path style="opacity:1" fill="#eeeeee" d="M 428.5,205.5 C 432.419,204.746 433.753,206.08 432.5,209.5C 429.07,210.742 427.737,209.409 428.5,205.5 Z"/></g>
<g><path style="opacity:1" fill="#f4f4f4" d="M 439.5,205.5 C 443.161,205.35 444.161,206.85 442.5,210C 438.707,210.487 437.707,208.987 439.5,205.5 Z"/></g>
<g><path style="opacity:1" fill="#f1f1f1" d="M 449.5,205.5 C 450.873,205.343 452.207,205.51 453.5,206C 454.474,208.702 453.474,210.035 450.5,210C 449.62,208.644 449.286,207.144 449.5,205.5 Z"/></g>
<g><path style="opacity:1" fill="#f4f4f4" d="M 460.5,205.5 C 464.161,205.35 465.161,206.85 463.5,210C 459.707,210.487 458.707,208.987 460.5,205.5 Z"/></g>
<g><path style="opacity:1" fill="#eaeaea" d="M 470.5,205.5 C 471.873,205.343 473.207,205.51 474.5,206C 475.474,208.702 474.474,210.035 471.5,210C 469.452,208.774 469.119,207.274 470.5,205.5 Z"/></g>
<g><path style="opacity:1" fill="#f4f4f4" d="M 481.5,205.5 C 485.161,205.35 486.161,206.85 484.5,210C 480.707,210.487 479.707,208.987 481.5,205.5 Z"/></g>
<g><path style="opacity:1" fill="#eaeaea" d="M 491.5,205.5 C 492.873,205.343 494.207,205.51 495.5,206C 496.474,208.702 495.474,210.035 492.5,210C 490.452,208.774 490.119,207.274 491.5,205.5 Z"/></g>
<g><path style="opacity:1" fill="#f4f4f4" d="M 502.5,205.5 C 506.161,205.35 507.161,206.85 505.5,210C 501.707,210.487 500.707,208.987 502.5,205.5 Z"/></g>
<g><path style="opacity:1" fill="#f4f4f4" d="M 513.5,205.5 C 517.161,205.35 518.161,206.85 516.5,210C 512.707,210.487 511.707,208.987 513.5,205.5 Z"/></g>
<g><path style="opacity:1" fill="#eaeaea" d="M 523.5,205.5 C 524.873,205.343 526.207,205.51 527.5,206C 528.474,208.702 527.474,210.035 524.5,210C 522.452,208.774 522.119,207.274 523.5,205.5 Z"/></g>
<g><path style="opacity:1" fill="#f4f4f4" d="M 534.5,205.5 C 538.161,205.35 539.161,206.85 537.5,210C 533.707,210.487 532.707,208.987 534.5,205.5 Z"/></g>
<g><path style="opacity:1" fill="#eaeaea" d="M 544.5,205.5 C 545.873,205.343 547.207,205.51 548.5,206C 549.474,208.702 548.474,210.035 545.5,210C 543.452,208.774 543.119,207.274 544.5,205.5 Z"/></g>
<g><path style="opacity:1" fill="#f4f4f4" d="M 555.5,205.5 C 559.161,205.35 560.161,206.85 558.5,210C 554.707,210.487 553.707,208.987 555.5,205.5 Z"/></g>
<g><path style="opacity:1" fill="#eaeaea" d="M 565.5,205.5 C 566.873,205.343 568.207,205.51 569.5,206C 570.474,208.702 569.474,210.035 566.5,210C 564.452,208.774 564.119,207.274 565.5,205.5 Z"/></g>
<g><path style="opacity:1" fill="#f4f4f4" d="M 576.5,205.5 C 580.161,205.35 581.161,206.85 579.5,210C 575.707,210.487 574.707,208.987 576.5,205.5 Z"/></g>
<g><path style="opacity:1" fill="#eaeaea" d="M 586.5,205.5 C 587.873,205.343 589.207,205.51 590.5,206C 591.474,208.702 590.474,210.035 587.5,210C 585.452,208.774 585.119,207.274 586.5,205.5 Z"/></g>
<g><path style="opacity:1" fill="#f4f4f4" d="M 597.5,205.5 C 601.161,205.35 602.161,206.85 600.5,210C 596.707,210.487 595.707,208.987 597.5,205.5 Z"/></g>
<g><path style="opacity:1" fill="#eaeaea" d="M 607.5,205.5 C 608.873,205.343 610.207,205.51 611.5,206C 612.474,208.702 611.474,210.035 608.5,210C 606.452,208.774 606.119,207.274 607.5,205.5 Z"/></g>
<g><path style="opacity:1" fill="#f4f4f4" d="M 618.5,205.5 C 622.161,205.35 623.161,206.85 621.5,210C 617.707,210.487 616.707,208.987 618.5,205.5 Z"/></g>
<g><path style="opacity:1" fill="#f1f1f1" d="M 628.5,205.5 C 629.833,205.5 631.167,205.5 632.5,205.5C 632.465,211.024 630.799,211.691 627.5,207.5C 627.863,206.817 628.196,206.15 628.5,205.5 Z"/></g>
<g><path style="opacity:1" fill="#f4f4f4" d="M 639.5,205.5 C 643.161,205.35 644.161,206.85 642.5,210C 638.707,210.487 637.707,208.987 639.5,205.5 Z"/></g>
<g><path style="opacity:1" fill="#fcfcfc" d="M 359.5,357.5 C 360.491,351.021 360.824,344.354 360.5,337.5C 364.5,337.5 368.5,337.5 372.5,337.5C 372.5,342.833 372.5,348.167 372.5,353.5C 373.252,363.144 370.585,371.644 364.5,379C 345.083,387.581 333.583,381.414 330,360.5C 329.833,348.667 329.667,336.833 329.5,325C 329.371,311.78 329.871,298.614 331,285.5C 335.44,272.192 344.607,267.025 358.5,270C 366.232,273.279 370.732,279.112 372,287.5C 372.5,296.16 372.666,304.827 372.5,313.5C 368.167,313.5 363.833,313.5 359.5,313.5C 359.666,304.494 359.5,295.494 359,286.5C 355.225,279.426 350.558,278.759 345,284.5C 344.027,286.392 343.36,288.392 343,290.5C 342.333,314.167 342.333,337.833 343,361.5C 343.803,364.244 344.803,366.911 346,369.5C 348.896,371.745 352.063,372.078 355.5,370.5C 358.22,366.625 359.554,362.291 359.5,357.5 Z"/></g>
<g><path style="opacity:1" fill="#fafafa" d="M 410.5,269.5 C 425.493,266.406 434.993,272.072 439,286.5C 439.667,311.5 439.667,336.5 439,361.5C 437.133,378.7 427.633,385.533 410.5,382C 404.693,380.193 400.859,376.36 399,370.5C 398.206,367.529 397.539,364.529 397,361.5C 396.333,336.5 396.333,311.5 397,286.5C 398.67,278.449 403.17,272.782 410.5,269.5 Z"/></g>
<g><path style="opacity:1" fill="#fafafa" d="M 711.5,290.5 C 711.5,297.167 711.5,303.833 711.5,310.5C 707.5,310.5 703.5,310.5 699.5,310.5C 699.941,301.724 699.441,293.058 698,284.5C 693.255,279.257 688.588,279.257 684,284.5C 683.178,286.788 682.511,289.122 682,291.5C 681.333,314.167 681.333,336.833 682,359.5C 682.794,363.159 683.961,366.659 685.5,370C 689.794,372.386 693.627,371.886 697,368.5C 698.94,364.057 699.94,359.39 700,354.5C 700.5,347.508 700.666,340.508 700.5,333.5C 697.5,333.5 694.5,333.5 691.5,333.5C 691.5,330.167 691.5,326.833 691.5,323.5C 698.5,323.5 705.5,323.5 712.5,323.5C 712.5,342.833 712.5,362.167 712.5,381.5C 710.167,381.5 707.833,381.5 705.5,381.5C 705.357,378.903 704.523,376.569 703,374.5C 698.464,381.844 691.964,384.344 683.5,382C 677.667,380.167 673.833,376.333 672,370.5C 670.528,366.277 669.528,361.943 669,357.5C 668.333,335.833 668.333,314.167 669,292.5C 671.448,273.37 681.948,266.204 700.5,271C 708.357,275.02 712.024,281.52 711.5,290.5 Z"/></g>
<g><path style="opacity:1" fill="#fbfbfb" d="M 817.5,307.5 C 813.5,307.5 809.5,307.5 805.5,307.5C 805.823,301.31 805.49,295.31 804.5,289.5C 804.152,282.315 800.485,279.481 793.5,281C 791.19,282.637 789.69,284.804 789,287.5C 786.921,296.321 788.921,303.988 795,310.5C 805.631,319.119 813.298,329.786 818,342.5C 820.728,354.314 819.394,365.647 814,376.5C 809.652,381.003 804.318,383.003 798,382.5C 792.228,383.112 787.228,381.445 783,377.5C 780.027,372.921 778.027,367.921 777,362.5C 776.5,354.507 776.334,346.507 776.5,338.5C 780.833,338.5 785.167,338.5 789.5,338.5C 789.334,346.507 789.5,354.507 790,362.5C 791.061,371.115 795.561,373.615 803.5,370C 804.126,369.25 804.626,368.416 805,367.5C 808.311,355.657 806.644,344.657 800,334.5C 790.166,326.471 782.5,316.805 777,305.5C 776.333,298.167 776.333,290.833 777,283.5C 781.243,271.292 789.743,266.792 802.5,270C 811.122,272.028 815.955,277.528 817,286.5C 817.5,293.492 817.666,300.492 817.5,307.5 Z"/></g>
<g><path style="opacity:1" fill="#fcfcfc" d="M 855.5,269.5 C 871.994,266.48 881.494,273.146 884,289.5C 884.667,313.5 884.667,337.5 884,361.5C 880.327,381.088 869.16,387.255 850.5,380C 845.098,375.029 841.931,368.863 841,361.5C 840.333,337.5 840.333,313.5 841,289.5C 841.881,279.81 846.714,273.143 855.5,269.5 Z"/></g>
<g><path style="opacity:1" fill="#fcfcfc" d="M 923.5,269.5 C 939.994,266.48 949.494,273.146 952,289.5C 952.667,313.5 952.667,337.5 952,361.5C 948.327,381.088 937.16,387.255 918.5,380C 913.098,375.029 909.931,368.863 909,361.5C 908.333,337.5 908.333,313.5 909,289.5C 909.881,279.81 914.714,273.143 923.5,269.5 Z"/></g>
<g><path style="opacity:1" fill="#fcfcfc" d="M 496.5,357.5 C 497.246,362.479 497.912,362.146 498.5,356.5C 502.998,328.179 507.498,299.845 512,271.5C 517.407,270.527 522.907,270.193 528.5,270.5C 528.5,307.5 528.5,344.5 528.5,381.5C 524.833,381.5 521.167,381.5 517.5,381.5C 517.5,359.833 517.5,338.167 517.5,316.5C 518.653,310.681 518.819,304.681 518,298.5C 517.187,300.436 516.687,302.436 516.5,304.5C 512.058,330.15 507.725,355.817 503.5,381.5C 499.5,381.5 495.5,381.5 491.5,381.5C 486.834,355.501 482.167,329.501 477.5,303.5C 477.162,301.146 476.662,298.813 476,296.5C 475.179,303.346 475.346,310.013 476.5,316.5C 476.5,338.167 476.5,359.833 476.5,381.5C 472.833,381.5 469.167,381.5 465.5,381.5C 465.5,344.5 465.5,307.5 465.5,270.5C 471.093,270.193 476.593,270.527 482,271.5C 487.16,300.126 491.993,328.792 496.5,357.5 Z"/></g>
<g><path style="opacity:1" fill="#fdfdfd" d="M 556.5,270.5 C 560.833,270.5 565.167,270.5 569.5,270.5C 569.5,307.5 569.5,344.5 569.5,381.5C 565.167,381.5 560.833,381.5 556.5,381.5C 556.5,344.5 556.5,307.5 556.5,270.5 Z"/></g>
<g><path style="opacity:1" fill="#fdfdfd" d="M 632.5,319.5 C 632.5,303.5 632.5,287.5 632.5,271.5C 635.833,271.5 639.167,271.5 642.5,271.5C 642.5,308.167 642.5,344.833 642.5,381.5C 639.5,381.5 636.5,381.5 633.5,381.5C 625.834,357.501 618.167,333.501 610.5,309.5C 610.013,308.527 609.513,307.527 609,306.5C 608.182,312.349 608.348,318.015 609.5,323.5C 609.5,342.833 609.5,362.167 609.5,381.5C 605.5,381.5 601.5,381.5 597.5,381.5C 597.5,344.5 597.5,307.5 597.5,270.5C 601.106,270.211 604.606,270.544 608,271.5C 615.802,295.241 623.802,318.908 632,342.5C 632.5,334.841 632.666,327.174 632.5,319.5 Z"/></g>
<g><path style="opacity:1" fill="#dadada" d="M 642.5,381.5 C 642.5,344.833 642.5,308.167 642.5,271.5C 639.167,271.5 635.833,271.5 632.5,271.5C 632.5,287.5 632.5,303.5 632.5,319.5C 631.504,303.342 631.17,287.009 631.5,270.5C 635.5,270.5 639.5,270.5 643.5,270.5C 643.832,307.67 643.498,344.67 642.5,381.5 Z"/></g>
<g><path style="opacity:1" fill="#fbfbfb" d="M 978.5,270.5 C 981.833,270.5 985.167,270.5 988.5,270.5C 996.56,295.179 1004.73,319.846 1013,344.5C 1012.66,319.847 1012.49,295.18 1012.5,270.5C 1016.17,270.5 1019.83,270.5 1023.5,270.5C 1023.5,307.5 1023.5,344.5 1023.5,381.5C 1020.22,381.784 1017.06,381.451 1014,380.5C 1006.2,356.104 998.201,331.771 990,307.5C 990.407,332.146 990.574,356.813 990.5,381.5C 986.5,381.5 982.5,381.5 978.5,381.5C 978.5,344.5 978.5,307.5 978.5,270.5 Z"/></g>
<g><path style="opacity:1" fill="#545454" d="M 414.5,280.5 C 420.019,279.597 423.852,281.597 426,286.5C 426.667,311.833 426.667,337.167 426,362.5C 425.26,369.578 421.427,372.411 414.5,371C 411.732,369.238 410.232,366.738 410,363.5C 409.333,338.167 409.333,312.833 410,287.5C 411.012,284.798 412.512,282.465 414.5,280.5 Z"/></g>
<g><path style="opacity:1" fill="#575757" d="M 859.5,280.5 C 865.862,279.594 869.695,282.26 871,288.5C 871.667,312.5 871.667,336.5 871,360.5C 871.037,369.136 866.87,372.636 858.5,371C 855.819,368.806 854.319,365.973 854,362.5C 853.333,338.167 853.333,313.833 854,289.5C 854.858,285.763 856.691,282.763 859.5,280.5 Z"/></g>
<g><path style="opacity:1" fill="#575757" d="M 927.5,280.5 C 933.862,279.594 937.695,282.26 939,288.5C 939.667,312.5 939.667,336.5 939,360.5C 939.037,369.136 934.87,372.636 926.5,371C 923.819,368.806 922.319,365.973 922,362.5C 921.333,338.167 921.333,313.833 922,289.5C 922.858,285.763 924.691,282.763 927.5,280.5 Z"/></g>
<g><path style="opacity:1" fill="#b1b1b1" d="M 711.5,290.5 C 712.491,297.313 712.825,304.313 712.5,311.5C 707.968,311.818 703.634,311.485 699.5,310.5C 703.5,310.5 707.5,310.5 711.5,310.5C 711.5,303.833 711.5,297.167 711.5,290.5 Z"/></g>
<g><path style="opacity:1" fill="#a0a0a0" d="M 804.5,289.5 C 805.49,295.31 805.823,301.31 805.5,307.5C 809.5,307.5 813.5,307.5 817.5,307.5C 813.366,308.485 809.032,308.818 804.5,308.5C 804.5,302.167 804.5,295.833 804.5,289.5 Z"/></g>
<g><path style="opacity:1" fill="#c1c1c1" d="M 477.5,303.5 C 476.515,307.634 476.182,311.968 476.5,316.5C 475.346,310.013 475.179,303.346 476,296.5C 476.662,298.813 477.162,301.146 477.5,303.5 Z"/></g>
<g><path style="opacity:1" fill="#b7b7b7" d="M 517.5,316.5 C 517.817,312.298 517.483,308.298 516.5,304.5C 516.687,302.436 517.187,300.436 518,298.5C 518.819,304.681 518.653,310.681 517.5,316.5 Z"/></g>
<g><path style="opacity:1" fill="#c6c6c6" d="M 610.5,309.5 C 609.514,313.97 609.181,318.637 609.5,323.5C 608.348,318.015 608.182,312.349 609,306.5C 609.513,307.527 610.013,308.527 610.5,309.5 Z"/></g>
<g><path style="opacity:1" fill="#b2b2b2" d="M 372.5,353.5 C 372.5,348.167 372.5,342.833 372.5,337.5C 368.5,337.5 364.5,337.5 360.5,337.5C 360.824,344.354 360.491,351.021 359.5,357.5C 359.5,350.5 359.5,343.5 359.5,336.5C 364.167,336.5 368.833,336.5 373.5,336.5C 373.822,342.358 373.489,348.025 372.5,353.5 Z"/></g>
<g><path style="opacity:1" fill="#bababa" d="M 498.5,356.5 C 497.912,362.146 497.246,362.479 496.5,357.5C 497.167,357.167 497.833,356.833 498.5,356.5 Z"/></g>
<g><path style="opacity:1" fill="#f9f9f9" d="M 672.5,463.5 C 673.496,463.414 674.329,463.748 675,464.5C 677.515,468.344 680.015,472.177 682.5,476C 680.104,480.898 677.104,485.398 673.5,489.5C 669.936,485.386 666.603,481.052 663.5,476.5C 666.263,471.963 669.263,467.63 672.5,463.5 Z"/></g>
<g><path style="opacity:1" fill="#f3f3f3" d="M 71.5,476.5 C 72.8734,476.343 74.2068,476.51 75.5,477C 76.474,479.702 75.474,481.035 72.5,481C 71.6198,479.644 71.2865,478.144 71.5,476.5 Z"/></g>
<g><path style="opacity:1" fill="#f0f0f0" d="M 82.5,476.5 C 83.8333,476.5 85.1667,476.5 86.5,476.5C 86.9899,478.948 86.1566,480.615 84,481.5C 81.3894,480.5 80.8894,478.833 82.5,476.5 Z"/></g>
<g><path style="opacity:1" fill="#ececec" d="M 92.5,476.5 C 93.8734,476.343 95.2068,476.51 96.5,477C 97.474,479.702 96.474,481.035 93.5,481C 91.4523,479.774 91.119,478.274 92.5,476.5 Z"/></g>
<g><path style="opacity:1" fill="#f0f0f0" d="M 103.5,476.5 C 104.833,476.5 106.167,476.5 107.5,476.5C 107.99,478.948 107.157,480.615 105,481.5C 102.389,480.5 101.889,478.833 103.5,476.5 Z"/></g>
<g><path style="opacity:1" fill="#ececec" d="M 113.5,476.5 C 114.873,476.343 116.207,476.51 117.5,477C 118.474,479.702 117.474,481.035 114.5,481C 112.452,479.774 112.119,478.274 113.5,476.5 Z"/></g>
<g><path style="opacity:1" fill="#f0f0f0" d="M 124.5,476.5 C 125.833,476.5 127.167,476.5 128.5,476.5C 128.99,478.948 128.157,480.615 126,481.5C 123.389,480.5 122.889,478.833 124.5,476.5 Z"/></g>
<g><path style="opacity:1" fill="#ececec" d="M 134.5,476.5 C 135.873,476.343 137.207,476.51 138.5,477C 139.474,479.702 138.474,481.035 135.5,481C 133.452,479.774 133.119,478.274 134.5,476.5 Z"/></g>
<g><path style="opacity:1" fill="#ededed" d="M 144.5,476.5 C 146.167,476.5 147.833,476.5 149.5,476.5C 150.169,480.676 148.669,482.009 145,480.5C 144.51,479.207 144.343,477.873 144.5,476.5 Z"/></g>
<g><path style="opacity:1" fill="#ececec" d="M 155.5,476.5 C 156.873,476.343 158.207,476.51 159.5,477C 160.474,479.702 159.474,481.035 156.5,481C 154.452,479.774 154.119,478.274 155.5,476.5 Z"/></g>
<g><path style="opacity:1" fill="#ededed" d="M 165.5,476.5 C 167.167,476.5 168.833,476.5 170.5,476.5C 171.169,480.676 169.669,482.009 166,480.5C 165.51,479.207 165.343,477.873 165.5,476.5 Z"/></g>
<g><path style="opacity:1" fill="#ececec" d="M 176.5,476.5 C 177.873,476.343 179.207,476.51 180.5,477C 181.474,479.702 180.474,481.035 177.5,481C 175.452,479.774 175.119,478.274 176.5,476.5 Z"/></g>
<g><path style="opacity:1" fill="#ededed" d="M 186.5,476.5 C 188.167,476.5 189.833,476.5 191.5,476.5C 192.169,480.676 190.669,482.009 187,480.5C 186.51,479.207 186.343,477.873 186.5,476.5 Z"/></g>
<g><path style="opacity:1" fill="#ececec" d="M 197.5,476.5 C 198.873,476.343 200.207,476.51 201.5,477C 202.474,479.702 201.474,481.035 198.5,481C 196.452,479.774 196.119,478.274 197.5,476.5 Z"/></g>
<g><path style="opacity:1" fill="#ededed" d="M 207.5,476.5 C 209.167,476.5 210.833,476.5 212.5,476.5C 213.169,480.676 211.669,482.009 208,480.5C 207.51,479.207 207.343,477.873 207.5,476.5 Z"/></g>
<g><path style="opacity:1" fill="#ececec" d="M 218.5,476.5 C 219.873,476.343 221.207,476.51 222.5,477C 223.474,479.702 222.474,481.035 219.5,481C 217.452,479.774 217.119,478.274 218.5,476.5 Z"/></g>
<g><path style="opacity:1" fill="#ededed" d="M 228.5,476.5 C 230.167,476.5 231.833,476.5 233.5,476.5C 234.169,480.676 232.669,482.009 229,480.5C 228.51,479.207 228.343,477.873 228.5,476.5 Z"/></g>
<g><path style="opacity:1" fill="#ececec" d="M 239.5,476.5 C 240.873,476.343 242.207,476.51 243.5,477C 244.474,479.702 243.474,481.035 240.5,481C 238.452,479.774 238.119,478.274 239.5,476.5 Z"/></g>
<g><path style="opacity:1" fill="#ededed" d="M 249.5,476.5 C 251.167,476.5 252.833,476.5 254.5,476.5C 255.169,480.676 253.669,482.009 250,480.5C 249.51,479.207 249.343,477.873 249.5,476.5 Z"/></g>
<g><path style="opacity:1" fill="#ececec" d="M 260.5,476.5 C 261.873,476.343 263.207,476.51 264.5,477C 265.474,479.702 264.474,481.035 261.5,481C 259.452,479.774 259.119,478.274 260.5,476.5 Z"/></g>
<g><path style="opacity:1" fill="#ededed" d="M 270.5,476.5 C 272.167,476.5 273.833,476.5 275.5,476.5C 276.169,480.676 274.669,482.009 271,480.5C 270.51,479.207 270.343,477.873 270.5,476.5 Z"/></g>
<g><path style="opacity:1" fill="#ececec" d="M 281.5,476.5 C 282.873,476.343 284.207,476.51 285.5,477C 286.474,479.702 285.474,481.035 282.5,481C 280.452,479.774 280.119,478.274 281.5,476.5 Z"/></g>
<g><path style="opacity:1" fill="#ececec" d="M 292.5,476.5 C 293.873,476.343 295.207,476.51 296.5,477C 297.474,479.702 296.474,481.035 293.5,481C 291.452,479.774 291.119,478.274 292.5,476.5 Z"/></g>
<g><path style="opacity:1" fill="#f0f0f0" d="M 303.5,476.5 C 304.833,476.5 306.167,476.5 307.5,476.5C 307.99,478.948 307.157,480.615 305,481.5C 302.389,480.5 301.889,478.833 303.5,476.5 Z"/></g>
<g><path style="opacity:1" fill="#ececec" d="M 313.5,476.5 C 314.873,476.343 316.207,476.51 317.5,477C 318.474,479.702 317.474,481.035 314.5,481C 312.452,479.774 312.119,478.274 313.5,476.5 Z"/></g>
<g><path style="opacity:1" fill="#f0f0f0" d="M 324.5,476.5 C 325.833,476.5 327.167,476.5 328.5,476.5C 328.99,478.948 328.157,480.615 326,481.5C 323.389,480.5 322.889,478.833 324.5,476.5 Z"/></g>
<g><path style="opacity:1" fill="#ececec" d="M 334.5,476.5 C 335.873,476.343 337.207,476.51 338.5,477C 339.474,479.702 338.474,481.035 335.5,481C 333.452,479.774 333.119,478.274 334.5,476.5 Z"/></g>
<g><path style="opacity:1" fill="#f0f0f0" d="M 345.5,476.5 C 346.833,476.5 348.167,476.5 349.5,476.5C 349.99,478.948 349.157,480.615 347,481.5C 344.389,480.5 343.889,478.833 345.5,476.5 Z"/></g>
<g><path style="opacity:1" fill="#ececec" d="M 355.5,476.5 C 356.873,476.343 358.207,476.51 359.5,477C 360.474,479.702 359.474,481.035 356.5,481C 354.452,479.774 354.119,478.274 355.5,476.5 Z"/></g>
<g><path style="opacity:1" fill="#ededed" d="M 365.5,476.5 C 367.167,476.5 368.833,476.5 370.5,476.5C 371.169,480.676 369.669,482.009 366,480.5C 365.51,479.207 365.343,477.873 365.5,476.5 Z"/></g>
<g><path style="opacity:1" fill="#ececec" d="M 376.5,476.5 C 377.873,476.343 379.207,476.51 380.5,477C 381.474,479.702 380.474,481.035 377.5,481C 375.452,479.774 375.119,478.274 376.5,476.5 Z"/></g>
<g><path style="opacity:1" fill="#ededed" d="M 386.5,476.5 C 388.167,476.5 389.833,476.5 391.5,476.5C 392.169,480.676 390.669,482.009 387,480.5C 386.51,479.207 386.343,477.873 386.5,476.5 Z"/></g>
<g><path style="opacity:1" fill="#ececec" d="M 397.5,476.5 C 398.873,476.343 400.207,476.51 401.5,477C 402.474,479.702 401.474,481.035 398.5,481C 396.452,479.774 396.119,478.274 397.5,476.5 Z"/></g>
<g><path style="opacity:1" fill="#ededed" d="M 407.5,476.5 C 409.167,476.5 410.833,476.5 412.5,476.5C 413.169,480.676 411.669,482.009 408,480.5C 407.51,479.207 407.343,477.873 407.5,476.5 Z"/></g>
<g><path style="opacity:1" fill="#ececec" d="M 418.5,476.5 C 419.873,476.343 421.207,476.51 422.5,477C 423.474,479.702 422.474,481.035 419.5,481C 417.452,479.774 417.119,478.274 418.5,476.5 Z"/></g>
<g><path style="opacity:1" fill="#ededed" d="M 428.5,476.5 C 430.167,476.5 431.833,476.5 433.5,476.5C 434.169,480.676 432.669,482.009 429,480.5C 428.51,479.207 428.343,477.873 428.5,476.5 Z"/></g>
<g><path style="opacity:1" fill="#ececec" d="M 439.5,476.5 C 440.873,476.343 442.207,476.51 443.5,477C 444.474,479.702 443.474,481.035 440.5,481C 438.452,479.774 438.119,478.274 439.5,476.5 Z"/></g>
<g><path style="opacity:1" fill="#ededed" d="M 449.5,476.5 C 451.167,476.5 452.833,476.5 454.5,476.5C 455.169,480.676 453.669,482.009 450,480.5C 449.51,479.207 449.343,477.873 449.5,476.5 Z"/></g>
<g><path style="opacity:1" fill="#ececec" d="M 460.5,476.5 C 461.873,476.343 463.207,476.51 464.5,477C 465.474,479.702 464.474,481.035 461.5,481C 459.452,479.774 459.119,478.274 460.5,476.5 Z"/></g>
<g><path style="opacity:1" fill="#ededed" d="M 470.5,476.5 C 472.167,476.5 473.833,476.5 475.5,476.5C 476.169,480.676 474.669,482.009 471,480.5C 470.51,479.207 470.343,477.873 470.5,476.5 Z"/></g>
<g><path style="opacity:1" fill="#ececec" d="M 481.5,476.5 C 482.873,476.343 484.207,476.51 485.5,477C 486.474,479.702 485.474,481.035 482.5,481C 480.452,479.774 480.119,478.274 481.5,476.5 Z"/></g>
<g><path style="opacity:1" fill="#ededed" d="M 491.5,476.5 C 493.167,476.5 494.833,476.5 496.5,476.5C 497.169,480.676 495.669,482.009 492,480.5C 491.51,479.207 491.343,477.873 491.5,476.5 Z"/></g>
<g><path style="opacity:1" fill="#ececec" d="M 502.5,476.5 C 503.873,476.343 505.207,476.51 506.5,477C 507.474,479.702 506.474,481.035 503.5,481C 501.452,479.774 501.119,478.274 502.5,476.5 Z"/></g>
<g><path style="opacity:1" fill="#ececec" d="M 513.5,476.5 C 514.873,476.343 516.207,476.51 517.5,477C 518.474,479.702 517.474,481.035 514.5,481C 512.452,479.774 512.119,478.274 513.5,476.5 Z"/></g>
<g><path style="opacity:1" fill="#f0f0f0" d="M 524.5,476.5 C 525.833,476.5 527.167,476.5 528.5,476.5C 528.99,478.948 528.157,480.615 526,481.5C 523.389,480.5 522.889,478.833 524.5,476.5 Z"/></g>
<g><path style="opacity:1" fill="#ececec" d="M 534.5,476.5 C 535.873,476.343 537.207,476.51 538.5,477C 539.474,479.702 538.474,481.035 535.5,481C 533.452,479.774 533.119,478.274 534.5,476.5 Z"/></g>
<g><path style="opacity:1" fill="#f0f0f0" d="M 545.5,476.5 C 546.833,476.5 548.167,476.5 549.5,476.5C 549.99,478.948 549.157,480.615 547,481.5C 544.389,480.5 543.889,478.833 545.5,476.5 Z"/></g>
<g><path style="opacity:1" fill="#ececec" d="M 555.5,476.5 C 556.873,476.343 558.207,476.51 559.5,477C 560.474,479.702 559.474,481.035 556.5,481C 554.452,479.774 554.119,478.274 555.5,476.5 Z"/></g>
<g><path style="opacity:1" fill="#f0f0f0" d="M 566.5,476.5 C 567.833,476.5 569.167,476.5 570.5,476.5C 570.99,478.948 570.157,480.615 568,481.5C 565.389,480.5 564.889,478.833 566.5,476.5 Z"/></g>
<g><path style="opacity:1" fill="#ececec" d="M 576.5,476.5 C 577.873,476.343 579.207,476.51 580.5,477C 581.474,479.702 580.474,481.035 577.5,481C 575.452,479.774 575.119,478.274 576.5,476.5 Z"/></g>
<g><path style="opacity:1" fill="#ededed" d="M 586.5,476.5 C 588.167,476.5 589.833,476.5 591.5,476.5C 592.169,480.676 590.669,482.009 587,480.5C 586.51,479.207 586.343,477.873 586.5,476.5 Z"/></g>
<g><path style="opacity:1" fill="#ececec" d="M 597.5,476.5 C 598.873,476.343 600.207,476.51 601.5,477C 602.474,479.702 601.474,481.035 598.5,481C 596.452,479.774 596.119,478.274 597.5,476.5 Z"/></g>
<g><path style="opacity:1" fill="#ededed" d="M 607.5,476.5 C 609.167,476.5 610.833,476.5 612.5,476.5C 613.169,480.676 611.669,482.009 608,480.5C 607.51,479.207 607.343,477.873 607.5,476.5 Z"/></g>
<g><path style="opacity:1" fill="#ececec" d="M 618.5,476.5 C 619.873,476.343 621.207,476.51 622.5,477C 623.474,479.702 622.474,481.035 619.5,481C 617.452,479.774 617.119,478.274 618.5,476.5 Z"/></g>
<g><path style="opacity:1" fill="#ededed" d="M 628.5,476.5 C 630.167,476.5 631.833,476.5 633.5,476.5C 634.169,480.676 632.669,482.009 629,480.5C 628.51,479.207 628.343,477.873 628.5,476.5 Z"/></g>
<g><path style="opacity:1" fill="#f1f1f1" d="M 639.5,476.5 C 640.833,476.5 642.167,476.5 643.5,476.5C 643.465,482.024 641.799,482.691 638.5,478.5C 638.863,477.817 639.196,477.15 639.5,476.5 Z"/></g>
<g><path style="opacity:1" fill="#f1f1f1" d="M 704.5,476.5 C 705.833,476.5 707.167,476.5 708.5,476.5C 708.99,478.948 708.157,480.615 706,481.5C 703.389,480.5 702.889,478.833 704.5,476.5 Z"/></g>
<g><path style="opacity:1" fill="#efefef" d="M 714.5,476.5 C 718.409,475.737 719.742,477.07 718.5,480.5C 715.08,481.753 713.746,480.419 714.5,476.5 Z"/></g>
<g><path style="opacity:1" fill="#f0f0f0" d="M 725.5,476.5 C 726.833,476.5 728.167,476.5 729.5,476.5C 729.99,478.948 729.157,480.615 727,481.5C 724.389,480.5 723.889,478.833 725.5,476.5 Z"/></g>
<g><path style="opacity:1" fill="#ececec" d="M 735.5,476.5 C 736.873,476.343 738.207,476.51 739.5,477C 740.474,479.702 739.474,481.035 736.5,481C 734.452,479.774 734.119,478.274 735.5,476.5 Z"/></g>
<g><path style="opacity:1" fill="#ededed" d="M 745.5,476.5 C 747.167,476.5 748.833,476.5 750.5,476.5C 751.169,480.676 749.669,482.009 746,480.5C 745.51,479.207 745.343,477.873 745.5,476.5 Z"/></g>
<g><path style="opacity:1" fill="#ececec" d="M 756.5,476.5 C 757.873,476.343 759.207,476.51 760.5,477C 761.474,479.702 760.474,481.035 757.5,481C 755.452,479.774 755.119,478.274 756.5,476.5 Z"/></g>
<g><path style="opacity:1" fill="#ededed" d="M 766.5,476.5 C 768.167,476.5 769.833,476.5 771.5,476.5C 772.169,480.676 770.669,482.009 767,480.5C 766.51,479.207 766.343,477.873 766.5,476.5 Z"/></g>
<g><path style="opacity:1" fill="#ececec" d="M 777.5,476.5 C 778.873,476.343 780.207,476.51 781.5,477C 782.474,479.702 781.474,481.035 778.5,481C 776.452,479.774 776.119,478.274 777.5,476.5 Z"/></g>
<g><path style="opacity:1" fill="#ededed" d="M 787.5,476.5 C 789.167,476.5 790.833,476.5 792.5,476.5C 793.169,480.676 791.669,482.009 788,480.5C 787.51,479.207 787.343,477.873 787.5,476.5 Z"/></g>
<g><path style="opacity:1" fill="#ececec" d="M 798.5,476.5 C 799.873,476.343 801.207,476.51 802.5,477C 803.474,479.702 802.474,481.035 799.5,481C 797.452,479.774 797.119,478.274 798.5,476.5 Z"/></g>
<g><path style="opacity:1" fill="#f0f0f0" d="M 808.5,476.5 C 812.138,475.737 813.638,477.07 813,480.5C 809.331,482.009 807.831,480.676 808.5,476.5 Z"/></g>
<g><path style="opacity:1" fill="#e9e9e9" d="M 819.5,476.5 C 825.338,476.824 825.838,478.491 821,481.5C 818.697,480.257 818.197,478.591 819.5,476.5 Z"/></g>
<g><path style="opacity:1" fill="#f0f0f0" d="M 829.5,476.5 C 833.138,475.737 834.638,477.07 834,480.5C 830.331,482.009 828.831,480.676 829.5,476.5 Z"/></g>
<g><path style="opacity:1" fill="#ededed" d="M 840.5,476.5 C 842.167,476.5 843.833,476.5 845.5,476.5C 846.169,480.676 844.669,482.009 841,480.5C 840.51,479.207 840.343,477.873 840.5,476.5 Z"/></g>
<g><path style="opacity:1" fill="#ececec" d="M 851.5,476.5 C 852.873,476.343 854.207,476.51 855.5,477C 856.474,479.702 855.474,481.035 852.5,481C 850.452,479.774 850.119,478.274 851.5,476.5 Z"/></g>
<g><path style="opacity:1" fill="#f0f0f0" d="M 861.5,476.5 C 865.138,475.737 866.638,477.07 866,480.5C 862.331,482.009 860.831,480.676 861.5,476.5 Z"/></g>
<g><path style="opacity:1" fill="#e9e9e9" d="M 872.5,476.5 C 878.338,476.824 878.838,478.491 874,481.5C 871.697,480.257 871.197,478.591 872.5,476.5 Z"/></g>
<g><path style="opacity:1" fill="#f1f1f1" d="M 882.5,476.5 C 886.138,475.737 887.638,477.07 887,480.5C 883.331,482.009 881.831,480.676 882.5,476.5 Z"/></g>
<g><path style="opacity:1" fill="#f0f0f0" d="M 893.5,476.5 C 894.833,476.5 896.167,476.5 897.5,476.5C 897.365,481.987 895.698,482.654 892.5,478.5C 892.863,477.817 893.196,477.15 893.5,476.5 Z"/></g>
<g><path style="opacity:1" fill="#f0f0f0" d="M 903.5,476.5 C 907.138,475.737 908.638,477.07 908,480.5C 904.331,482.009 902.831,480.676 903.5,476.5 Z"/></g>
<g><path style="opacity:1" fill="#ededed" d="M 914.5,476.5 C 915.833,476.5 917.167,476.5 918.5,476.5C 918.99,478.948 918.157,480.615 916,481.5C 913.389,480.5 912.889,478.833 914.5,476.5 Z"/></g>
<g><path style="opacity:1" fill="#f0f0f0" d="M 924.5,476.5 C 928.138,475.737 929.638,477.07 929,480.5C 925.331,482.009 923.831,480.676 924.5,476.5 Z"/></g>
<g><path style="opacity:1" fill="#ededed" d="M 935.5,476.5 C 936.833,476.5 938.167,476.5 939.5,476.5C 939.99,478.948 939.157,480.615 937,481.5C 934.389,480.5 933.889,478.833 935.5,476.5 Z"/></g>
<g><path style="opacity:1" fill="#f0f0f0" d="M 945.5,476.5 C 949.138,475.737 950.638,477.07 950,480.5C 946.331,482.009 944.831,480.676 945.5,476.5 Z"/></g>
<g><path style="opacity:1" fill="#eeeeee" d="M 956.5,476.5 C 957.833,476.5 959.167,476.5 960.5,476.5C 960.99,478.948 960.157,480.615 958,481.5C 955.389,480.5 954.889,478.833 956.5,476.5 Z"/></g>
<g><path style="opacity:1" fill="#efefef" d="M 966.5,476.5 C 970.138,475.737 971.638,477.07 971,480.5C 967.331,482.009 965.831,480.676 966.5,476.5 Z"/></g>
<g><path style="opacity:1" fill="#eeeeee" d="M 977.5,476.5 C 978.833,476.5 980.167,476.5 981.5,476.5C 981.99,478.948 981.157,480.615 979,481.5C 976.389,480.5 975.889,478.833 977.5,476.5 Z"/></g>
<g><path style="opacity:1" fill="#efefef" d="M 987.5,476.5 C 991.138,475.737 992.638,477.07 992,480.5C 988.331,482.009 986.831,480.676 987.5,476.5 Z"/></g>
<g><path style="opacity:1" fill="#efefef" d="M 998.5,476.5 C 999.833,476.5 1001.17,476.5 1002.5,476.5C 1002.99,478.948 1002.16,480.615 1000,481.5C 997.389,480.5 996.889,478.833 998.5,476.5 Z"/></g>
<g><path style="opacity:1" fill="#eeeeee" d="M 1008.5,476.5 C 1012.14,475.737 1013.64,477.07 1013,480.5C 1009.33,482.009 1007.83,480.676 1008.5,476.5 Z"/></g>
<g><path style="opacity:1" fill="#f0f0f0" d="M 1019.5,476.5 C 1020.83,476.5 1022.17,476.5 1023.5,476.5C 1023.99,478.948 1023.16,480.615 1021,481.5C 1018.39,480.5 1017.89,478.833 1019.5,476.5 Z"/></g>
<g><path style="opacity:1" fill="#eeeeee" d="M 1029.5,476.5 C 1033.14,475.737 1034.64,477.07 1034,480.5C 1030.33,482.009 1028.83,480.676 1029.5,476.5 Z"/></g>
<g><path style="opacity:1" fill="#f0f0f0" d="M 1040.5,476.5 C 1041.83,476.5 1043.17,476.5 1044.5,476.5C 1044.99,478.948 1044.16,480.615 1042,481.5C 1039.39,480.5 1038.89,478.833 1040.5,476.5 Z"/></g>
<g><path style="opacity:1" fill="#eeeeee" d="M 1050.5,476.5 C 1054.14,475.737 1055.64,477.07 1055,480.5C 1051.33,482.009 1049.83,480.676 1050.5,476.5 Z"/></g>
<g><path style="opacity:1" fill="#eeeeee" d="M 1061.5,476.5 C 1065.14,475.737 1066.64,477.07 1066,480.5C 1062.33,482.009 1060.83,480.676 1061.5,476.5 Z"/></g>
<g><path style="opacity:1" fill="#efefef" d="M 1072.5,476.5 C 1073.83,476.5 1075.17,476.5 1076.5,476.5C 1076.99,478.948 1076.16,480.615 1074,481.5C 1071.39,480.5 1070.89,478.833 1072.5,476.5 Z"/></g>
<g><path style="opacity:1" fill="#eeeeee" d="M 1082.5,476.5 C 1086.14,475.737 1087.64,477.07 1087,480.5C 1083.33,482.009 1081.83,480.676 1082.5,476.5 Z"/></g>
<g><path style="opacity:1" fill="#f0f0f0" d="M 1093.5,476.5 C 1094.83,476.5 1096.17,476.5 1097.5,476.5C 1097.99,478.948 1097.16,480.615 1095,481.5C 1092.39,480.5 1091.89,478.833 1093.5,476.5 Z"/></g>
<g><path style="opacity:1" fill="#ededed" d="M 1103.5,476.5 C 1107.14,475.737 1108.64,477.07 1108,480.5C 1104.33,482.009 1102.83,480.676 1103.5,476.5 Z"/></g>
<g><path style="opacity:1" fill="#f0f0f0" d="M 1114.5,476.5 C 1115.83,476.5 1117.17,476.5 1118.5,476.5C 1118.99,478.948 1118.16,480.615 1116,481.5C 1113.39,480.5 1112.89,478.833 1114.5,476.5 Z"/></g>
<g><path style="opacity:1" fill="#ececec" d="M 1124.5,476.5 C 1128.14,475.737 1129.64,477.07 1129,480.5C 1125.33,482.009 1123.83,480.676 1124.5,476.5 Z"/></g>
<g><path style="opacity:1" fill="#f0f0f0" d="M 1135.5,476.5 C 1136.83,476.5 1138.17,476.5 1139.5,476.5C 1139.99,478.948 1139.16,480.615 1137,481.5C 1134.39,480.5 1133.89,478.833 1135.5,476.5 Z"/></g>
<g><path style="opacity:1" fill="#f0f0f0" d="M 1145.5,476.5 C 1149.41,475.737 1150.74,477.07 1149.5,480.5C 1146.08,481.753 1144.75,480.419 1145.5,476.5 Z"/></g>
<g><path style="opacity:1" fill="#ededed" d="M 1155.5,476.5 C 1157.17,476.5 1158.83,476.5 1160.5,476.5C 1161.17,480.676 1159.67,482.009 1156,480.5C 1155.51,479.207 1155.34,477.873 1155.5,476.5 Z"/></g>
<g><path style="opacity:1" fill="#f2f2f2" d="M 1166.5,476.5 C 1167.87,476.343 1169.21,476.51 1170.5,477C 1171.47,479.702 1170.47,481.035 1167.5,481C 1166.62,479.644 1166.29,478.144 1166.5,476.5 Z"/></g>
<g><path style="opacity:1" fill="#eeeeee" d="M 1176.5,476.5 C 1178.17,476.5 1179.83,476.5 1181.5,476.5C 1182.17,480.676 1180.67,482.009 1177,480.5C 1176.51,479.207 1176.34,477.873 1176.5,476.5 Z"/></g>
<g><path style="opacity:1" fill="#ececec" d="M 1187.5,476.5 C 1188.87,476.343 1190.21,476.51 1191.5,477C 1192.47,479.702 1191.47,481.035 1188.5,481C 1186.45,479.774 1186.12,478.274 1187.5,476.5 Z"/></g>
<g><path style="opacity:1" fill="#ededed" d="M 1197.5,476.5 C 1199.17,476.5 1200.83,476.5 1202.5,476.5C 1203.17,480.676 1201.67,482.009 1198,480.5C 1197.51,479.207 1197.34,477.873 1197.5,476.5 Z"/></g>
<g><path style="opacity:1" fill="#ececec" d="M 1208.5,476.5 C 1209.87,476.343 1211.21,476.51 1212.5,477C 1213.47,479.702 1212.47,481.035 1209.5,481C 1207.45,479.774 1207.12,478.274 1208.5,476.5 Z"/></g>
<g><path style="opacity:1" fill="#ededed" d="M 1218.5,476.5 C 1220.17,476.5 1221.83,476.5 1223.5,476.5C 1224.17,480.676 1222.67,482.009 1219,480.5C 1218.51,479.207 1218.34,477.873 1218.5,476.5 Z"/></g>
<g><path style="opacity:1" fill="#ececec" d="M 1229.5,476.5 C 1230.87,476.343 1232.21,476.51 1233.5,477C 1234.47,479.702 1233.47,481.035 1230.5,481C 1228.45,479.774 1228.12,478.274 1229.5,476.5 Z"/></g>
<g><path style="opacity:1" fill="#eeeeee" d="M 1239.5,476.5 C 1241.17,476.5 1242.83,476.5 1244.5,476.5C 1245.17,480.676 1243.67,482.009 1240,480.5C 1239.51,479.207 1239.34,477.873 1239.5,476.5 Z"/></g>
<g><path style="opacity:1" fill="#ececec" d="M 1250.5,476.5 C 1251.87,476.343 1253.21,476.51 1254.5,477C 1255.47,479.702 1254.47,481.035 1251.5,481C 1249.45,479.774 1249.12,478.274 1250.5,476.5 Z"/></g>
<g><path style="opacity:1" fill="#eeeeee" d="M 1260.5,476.5 C 1262.17,476.5 1263.83,476.5 1265.5,476.5C 1266.17,480.676 1264.67,482.009 1261,480.5C 1260.51,479.207 1260.34,477.873 1260.5,476.5 Z"/></g>
<g><path style="opacity:1" fill="#e9e9e9" d="M 1271.5,476.5 C 1277.34,476.824 1277.84,478.491 1273,481.5C 1270.7,480.257 1270.2,478.591 1271.5,476.5 Z"/></g>
<g><path style="opacity:1" fill="#efefef" d="M 67.5,500.5 C 471.5,500.5 875.5,500.5 1279.5,500.5C 1279.5,501.833 1279.5,503.167 1279.5,504.5C 1077.83,504.5 876.167,504.5 674.5,504.5C 673.833,529.833 673.167,529.833 672.5,504.5C 470.833,504.5 269.167,504.5 67.5,504.5C 67.5,503.167 67.5,501.833 67.5,500.5 Z"/></g>
</svg>
